<?xml version="1.0" standalone="no"?><!DOCTYPE svg PUBLIC "-//W3C//DTD SVG 1.1//EN" "http://www.w3.org/Graphics/SVG/1.1/DTD/svg11.dtd"><svg t="1594092279036" class="icon" viewBox="0 0 1024 1024" version="1.1" xmlns="http://www.w3.org/2000/svg" p-id="11335" xmlns:xlink="http://www.w3.org/1999/xlink" width="200" height="200"><defs><style type="text/css"></style></defs><path d="M499.7 342.4L203.8 922h271.5l418.6-820zM626.6 699.7L512.9 922h354.3zM130.1 568.7s98.6 90.6 146.9 135.7c37-72.1 113.6-222.1 113.6-222.1L343 438.1 130.1 568.7z" fill="#4A9DD7" p-id="11336"></path><path d="M203.8 922h271.5l418.6-820z" fill="#459AC4" p-id="11337"></path><path d="M499.7 342.4L203.8 922l690.1-820zM130.3 568.7l147 135.5 66-266.2z" fill="#4DA7DE" p-id="11338"></path><path d="M276.8 704.2l113.6-222.1-47.5-44.1z" fill="#459AC4" p-id="11339"></path><path d="M626.6 699.7L512.9 922H690z" fill="#4DA7DE" p-id="11340"></path><path d="M626.6 699.7L690 922h177.2z" fill="#459AC4" p-id="11341"></path></svg>